<?xml version="1.0" encoding="UTF-8"?>
<svg width="122px" height="32px" viewBox="0 0 122 32" version="1.1" xmlns="http://www.w3.org/2000/svg" xmlns:xlink="http://www.w3.org/1999/xlink">
    <title>Acc_Logo_White_Purple</title>
    <g id="Page-1" stroke="none" stroke-width="1" fill="none" fill-rule="evenodd">
        <g id="-00_Welcome-page" transform="translate(-1238.000000, -328.000000)" fill="#FFFFFF" fill-rule="nonzero">
            <g id="Acc_Logo_White_Purple" transform="translate(1238.000000, 328.000000)">
                <polygon id="Path" points="70 8.47058824 77.0062112 6 70 3.45882353 70 0 82 4.58823529 82 7.41176471 70 12"></polygon>
                <path d="M4.62913097,32 C2.09057528,32 0,30.7710843 0,28.0240964 L0,27.8795181 C0,24.5542169 2.98653611,23.3975904 6.64504284,23.3975904 L8.3623011,23.3975904 L8.3623011,22.746988 C8.3623011,21.373494 7.76499388,20.5783133 6.27172583,20.5783133 C4.92778458,20.5783133 4.25581395,21.3012048 4.18115055,22.313253 L0.447980416,22.313253 C0.746634027,19.2771084 3.21052632,17.8313253 6.49571603,17.8313253 C9.85556916,17.8313253 12.3194614,19.2048193 12.3194614,22.6024096 L12.3194614,31.7108434 L8.51162791,31.7108434 L8.51162791,30.1204819 C7.76499388,31.1325301 6.49571603,32 4.62913097,32 Z M8.3623011,27.2289157 L8.3623011,25.9277108 L6.79436965,25.9277108 C4.85312118,25.9277108 3.88249694,26.4337349 3.88249694,27.6626506 L3.88249694,27.8072289 C3.88249694,28.746988 4.47980416,29.3975904 5.82374541,29.3975904 C7.16768666,29.3253012 8.3623011,28.6024096 8.3623011,27.2289157 Z M21.2044064,32 C17.3219094,32 14.4847001,29.686747 14.4847001,25.060241 L14.4847001,24.8433735 C14.4847001,20.2168675 17.4712362,17.7590361 21.2044064,17.7590361 C24.4149327,17.7590361 27.0281518,19.3493976 27.3268054,22.8915663 L23.5936353,22.8915663 C23.369645,21.5903614 22.623011,20.7228916 21.2790698,20.7228916 C19.6364749,20.7228916 18.4418605,22.0240964 18.4418605,24.6987952 L18.4418605,25.1325301 C18.4418605,27.8795181 19.4871481,29.1084337 21.2790698,29.1084337 C22.623011,29.1084337 23.5936353,28.1686747 23.8176255,26.6506024 L27.4014688,26.6506024 C27.1774786,29.8313253 25.0122399,32 21.2044064,32 Z M35.8384333,32 C31.9559364,32 29.1187271,29.686747 29.1187271,25.060241 L29.1187271,24.8433735 C29.1187271,20.2168675 32.1052632,17.7590361 35.8384333,17.7590361 C39.0489596,17.7590361 41.6621787,19.3493976 41.9608323,22.8915663 L38.2276622,22.8915663 C38.003672,21.5903614 37.2570379,20.7228916 35.9130967,20.7228916 C34.2705018,20.7228916 33.0758874,22.0240964 33.0758874,24.6987952 L33.0758874,25.1325301 C33.0758874,27.8795181 34.121175,29.1084337 35.9130967,29.1084337 C37.2570379,29.1084337 38.2276622,28.1686747 38.4516524,26.6506024 L42.0354957,26.6506024 C41.8115055,29.8313253 39.6462668,32 35.8384333,32 Z M50.5471236,32 C46.5152999,32 43.752754,29.686747 43.752754,25.1325301 L43.752754,24.8433735 C43.752754,20.2891566 46.6646267,17.7590361 50.4724602,17.7590361 C53.9816401,17.7590361 56.8935129,19.6385542 56.8935129,24.1927711 L56.8935129,25.8554217 L47.7099143,25.8554217 C47.8592411,28.313253 48.9791922,29.253012 50.621787,29.253012 C52.1150551,29.253012 52.9363525,28.4578313 53.2350061,27.5180723 L56.8935129,27.5180723 C56.4455324,30.0481928 54.2056304,32 50.5471236,32 Z M47.7845777,23.3253012 L53.0110159,23.3253012 C52.9363525,21.3012048 51.9657283,20.4337349 50.3977968,20.4337349 C49.2031824,20.5060241 48.0832313,21.1566265 47.7845777,23.3253012 Z M59.2827417,18.1204819 L63.2399021,18.1204819 L63.2399021,20.1445783 C63.9118727,18.8433735 65.3304774,17.8313253 67.495716,17.8313253 C70.0342717,17.8313253 71.75153,19.3493976 71.75153,22.6024096 L71.75153,31.7108434 L67.7943696,31.7108434 L67.7943696,23.1807229 C67.7943696,21.5903614 67.122399,20.8674699 65.7037944,20.8674699 C64.3598531,20.8674699 63.2399021,21.6626506 63.2399021,23.3975904 L63.2399021,31.7108434 L59.2827417,31.7108434 L59.2827417,18.1204819 L59.2827417,18.1204819 Z M78.99388,14 L78.99388,18.1204819 L81.6817625,18.1204819 L81.6817625,20.939759 L78.99388,20.939759 L78.99388,27.373494 C78.99388,28.3855422 79.4418605,28.8915663 80.4124847,28.8915663 C81.0097919,28.8915663 81.3831089,28.8192771 81.7564259,28.6746988 L81.7564259,31.6385542 C81.3084455,31.7831325 80.4871481,31.9277108 79.5165239,31.9277108 C76.4553244,31.9277108 75.0367197,30.5542169 75.0367197,27.8072289 L75.0367197,20.939759 L73.3941248,20.939759 L73.3941248,18.1204819 L75.0367197,18.1204819 L75.0367197,15.5903614 L78.99388,14 Z M96.4651163,31.7108434 L92.5826193,31.7108434 L92.5826193,29.686747 C91.9106487,30.9879518 90.5667075,32 88.4761322,32 C85.9375765,32 84.0709914,30.4819277 84.0709914,27.3012048 L84.0709914,18.1204819 L88.0281518,18.1204819 L88.0281518,26.7951807 C88.0281518,28.3855422 88.7001224,29.1084337 90.0440636,29.1084337 C91.3880049,29.1084337 92.5079559,28.2409639 92.5079559,26.5783133 L92.5079559,18.1204819 L96.4651163,18.1204819 L96.4651163,31.7108434 Z M99.376989,18.1204819 L103.334149,18.1204819 L103.334149,20.6506024 C104.155447,18.8433735 105.499388,17.9759036 107.589963,17.9759036 L107.589963,21.7349398 C104.902081,21.7349398 103.334149,22.5301205 103.334149,24.7710843 L103.334149,31.7831325 L99.376989,31.7831325 L99.376989,18.1204819 Z M115.578947,32 C111.547124,32 108.784578,29.686747 108.784578,25.1325301 L108.784578,24.8433735 C108.784578,20.2891566 111.69645,17.7590361 115.504284,17.7590361 C119.013464,17.7590361 121.925337,19.6385542 121.925337,24.1927711 L121.925337,25.8554217 L112.816401,25.8554217 C112.965728,28.313253 114.085679,29.253012 115.728274,29.253012 C117.221542,29.253012 118.04284,28.4578313 118.341493,27.5180723 L122,27.5180723 C121.402693,30.0481928 119.237454,32 115.578947,32 Z M112.741738,23.3253012 L118.04284,23.3253012 C117.968176,21.3012048 116.997552,20.4337349 115.429621,20.4337349 C114.235006,20.5060241 113.115055,21.1566265 112.741738,23.3253012 Z" id="Shape"></path>
            </g>
        </g>
    </g>
</svg>