<?xml version="1.0" encoding="UTF-8"?>
<svg width="180px" height="36px" viewBox="0 0 180 36" version="1.1" xmlns="http://www.w3.org/2000/svg" xmlns:xlink="http://www.w3.org/1999/xlink">
    <title>footer</title>
    <defs>
        <polygon id="path-1" points="0 0 25.7 0 25.7 24.6 0 24.6"></polygon>
    </defs>
    <g id="Home" stroke="none" stroke-width="1" fill="none" fill-rule="evenodd">
        <g id="00.1_Homepage" transform="translate(-1140.000000, -808.000000)">
            <g id="oi_prp_blk-copy" transform="translate(1140.000000, 808.000000)">
                <g id="Ops-Interactive" transform="translate(40.000000, 16.000000)" fill-rule="nonzero">
                    <path d="M8.23858368,16.4449291 C9.51281795,16.4449291 10.6662197,16.2486369 11.6987888,15.8560523 C12.731358,15.4634678 13.6138019,14.9109415 14.3461204,14.1984733 C15.0784389,13.5005453 15.6423242,12.6572155 16.0377762,11.6684842 C16.4332282,10.6797529 16.6309542,9.58197019 16.6309542,8.37513631 L16.6309542,8.37513631 L16.6309542,8.20065431 C16.6309542,6.99382043 16.4222435,5.90694293 16.0048219,4.94002181 C15.5874003,3.97310069 15.0125302,3.1479462 14.2802117,2.46455834 C13.5332468,1.79571065 12.6508029,1.27953472 11.6328802,0.916030534 C10.6149574,0.552526354 9.50549477,0.370774264 8.30449235,0.370774264 C7.13278267,0.370774264 6.04162803,0.559796438 5.03102843,0.937840785 C4.02042883,1.31588513 3.14164658,1.85387132 2.39468166,2.55179935 C1.64771674,3.24972737 1.06186189,4.08578698 0.637117138,5.05997819 C0.21237238,6.0341694 0,7.11741185 0,8.30970556 L0,8.30970556 L0,8.48418757 C0,9.66194111 0.190402823,10.7379135 0.571208468,11.7121047 C0.952014113,12.6862959 1.50125302,13.5223555 2.2189252,14.2202835 C2.93659739,14.9182116 3.80073327,15.4634678 4.81133287,15.8560523 C5.82193247,16.2486369 6.9643494,16.4449291 8.23858368,16.4449291 Z M8.3264619,12.9334787 C7.22798408,12.9334787 6.34920182,12.5445293 5.69011513,11.7666303 C5.03102843,10.9887313 4.70148508,9.8873137 4.70148508,8.46237732 L4.70148508,8.46237732 L4.70148508,8.28789531 C4.70148508,6.86295893 5.02370525,5.76881134 5.66814557,5.00545256 C6.31258589,4.24209378 7.19136815,3.86041439 8.30449235,3.86041439 C9.41761654,3.86041439 10.3000604,4.24572883 10.9518239,5.01635769 C11.6035874,5.78698655 11.9294692,6.87022901 11.9294692,8.26608506 L11.9294692,8.26608506 L11.9294692,8.44056707 C11.9294692,9.85096329 11.607249,10.952381 10.9628087,11.7448201 C10.3183684,12.5372591 9.4395861,12.9334787 8.3264619,12.9334787 Z M21.3863646,20 L21.3863646,14.5038168 C21.679292,15.0708833 22.1260064,15.5361686 22.7265076,15.8996728 C23.3270087,16.2631771 24.0666505,16.4449291 24.9454328,16.4449291 C25.6191659,16.4449291 26.2526214,16.3213377 26.8457994,16.0741549 C27.4389774,15.826972 27.955262,15.4561978 28.3946531,14.9618321 C28.8340443,14.4820065 29.1818955,13.8749546 29.4382071,13.1406761 C29.6945186,12.4063976 29.8226743,11.5448927 29.8226743,10.5561614 L29.8226743,10.5561614 L29.8226743,10.3816794 C29.8226743,9.40748818 29.6945186,8.54961832 29.4382071,7.80806979 C29.1818955,7.06652126 28.8340443,6.44856416 28.3946531,5.95419847 C27.955262,5.45983278 27.442639,5.08905852 26.8567842,4.84187568 C26.2709293,4.59469284 25.6411354,4.47110142 24.9674023,4.47110142 C24.0886201,4.47110142 23.3563015,4.66739368 22.7704467,5.05997819 C22.1845918,5.4525627 21.7232311,5.92511814 21.3863646,6.47764449 L21.3863646,6.47764449 L21.3863646,4.77644493 L17.453814,4.77644493 L17.453814,20 L21.3863646,20 Z M23.5613507,13.4569248 C22.8436785,13.4569248 22.2834548,13.2133769 21.8806796,12.7262814 C21.4779045,12.2391858 21.2765168,11.5085424 21.2765168,10.5343511 L21.2765168,10.5343511 L21.2765168,10.3598691 C21.2765168,9.4002181 21.4779045,8.6695747 21.8806796,8.16793893 C22.2834548,7.66630316 22.8436785,7.41548528 23.5613507,7.41548528 C24.2643765,7.41548528 24.817277,7.65903308 25.2200522,8.14612868 C25.6228274,8.63322428 25.824215,9.37840785 25.824215,10.3816794 L25.824215,10.3816794 L25.824215,10.5561614 C25.824215,11.5012722 25.6338122,12.2210105 25.2530065,12.7153762 C24.8722009,13.2097419 24.3083156,13.4569248 23.5613507,13.4569248 Z M35.1712627,16.4449291 C36.7677171,16.4449291 38.0346282,16.1286805 38.9719959,15.4961832 C39.9093637,14.8636859 40.3780476,13.8713195 40.3780476,12.519084 C40.3780476,11.9083969 40.2828462,11.392221 40.0924433,10.9705562 C39.9020405,10.5488913 39.6091131,10.1926572 39.2136611,9.90185387 C38.8182091,9.62559069 38.323894,9.40748818 37.730716,9.24754635 C37.137538,9.08760451 36.445497,8.95674301 35.6545929,8.85496183 C34.9515671,8.76772083 34.4535905,8.65866957 34.1606631,8.52780807 C33.8677357,8.39694656 33.721272,8.19338423 33.721272,7.91712105 C33.721272,7.65539804 33.8311197,7.44093057 34.0508153,7.27371865 C34.2705109,7.10650672 34.5927311,7.02290076 35.0174758,7.02290076 C35.4715133,7.02290076 35.8120414,7.11741185 36.0390602,7.30643402 C36.2660789,7.4954562 36.4162042,7.77898946 36.4894361,8.15703381 L36.4894361,8.15703381 L40.0485042,8.15703381 C39.9752724,7.47364595 39.8031775,6.89930934 39.5322196,6.43402399 C39.2612618,5.96873864 38.9060873,5.59069429 38.4666961,5.29989095 C38.027305,5.00908761 37.5110204,4.79825518 36.9178424,4.66739368 C36.3246644,4.53653217 35.6765625,4.47110142 34.9735367,4.47110142 C34.31445,4.47110142 33.684656,4.5474373 33.0841548,4.70010905 C32.4836536,4.85278081 31.9637074,5.08178844 31.5243163,5.38713195 C31.0702788,5.70701563 30.7114427,6.10323518 30.447808,6.57579062 C30.1841734,7.04834606 30.052356,7.59723736 30.052356,8.22246456 C30.052356,8.81861141 30.1365726,9.32751727 30.3050059,9.74918212 C30.4734392,10.1708469 30.7334123,10.5198109 31.0849252,10.7960742 C31.4364381,11.0868775 31.886814,11.3158851 32.4360529,11.4830971 C32.9852918,11.650309 33.6480401,11.7848055 34.4242978,11.8865867 C35.2152018,12.002908 35.7681023,12.1337695 36.0829993,12.2791712 C36.3978962,12.4245729 36.5553447,12.6354053 36.5553447,12.9116685 C36.5553447,13.2024718 36.4418353,13.4314794 36.2148166,13.5986914 C35.9877979,13.7659033 35.6326234,13.8495093 35.1492931,13.8495093 C34.5927311,13.8495093 34.2009406,13.740458 33.9739219,13.5223555 C33.7469031,13.304253 33.5967778,12.9843693 33.5235459,12.5627045 L33.5235459,12.5627045 L29.8985691,12.5627045 C29.9425082,13.8422392 30.4221769,14.8091603 31.3375751,15.4634678 C32.2529733,16.1177754 33.5308691,16.4449291 35.1712627,16.4449291 Z" id="Ops" fill="#A100FF"></path>
                    <path d="M46.9669173,16.1832061 L46.9669173,0.588876772 L45.0555659,0.588876772 L45.0555659,16.1832061 L46.9669173,16.1832061 Z M51.5885131,16.1832061 L51.5885131,9.2693566 C51.5885131,8.76045075 51.6763913,8.30970556 51.8521477,7.91712105 C52.0279042,7.52453653 52.2622462,7.19738277 52.5551735,6.93565976 C52.8481009,6.67393675 53.1886291,6.47764449 53.5767579,6.34678299 C53.9648868,6.21592148 54.3713236,6.15049073 54.7960683,6.15049073 C55.7187897,6.15049073 56.3998459,6.38313341 56.8392371,6.84841876 C57.2786282,7.3137041 57.4983238,8.04798255 57.4983238,9.05125409 L57.4983238,9.05125409 L57.4983238,16.1832061 L59.3217969,16.1832061 L59.3217969,9.18211559 C59.3217969,8.35332606 59.2229339,7.64812796 59.0252079,7.06652126 C58.8274819,6.48491457 58.5492008,6.0087241 58.1903648,5.63794984 C57.8315287,5.26717557 57.4031224,4.99818248 56.9051457,4.83097056 C56.4071691,4.66375863 55.8652534,4.58015267 55.2793985,4.58015267 C54.3273845,4.58015267 53.540142,4.78007997 52.9176712,5.17993457 C52.2952005,5.57978916 51.8521477,6.04870956 51.5885131,6.58669575 L51.5885131,6.58669575 L51.5885131,4.77644493 L49.7650399,4.77644493 L49.7650399,16.1832061 L51.5885131,16.1832061 Z M65.2615661,16.3358779 C65.6423717,16.3358779 65.9499455,16.3140676 66.1842875,16.2704471 C66.4186295,16.2268266 66.6310018,16.1686659 66.8214046,16.0959651 L66.8214046,16.0959651 L66.8214046,14.5692475 C66.6163555,14.6419483 66.4039831,14.7001091 66.1842875,14.7437296 C65.9645919,14.7873501 65.7082804,14.8091603 65.415353,14.8091603 C64.4633389,14.8091603 63.9873318,14.256634 63.9873318,13.1515812 L63.9873318,13.1515812 L63.9873318,6.30316249 L66.6676177,6.30316249 L66.6676177,4.77644493 L63.9873318,4.77644493 L63.9873318,2.18102508 L62.1638587,2.18102508 L62.1638587,4.77644493 L60.5161419,4.77644493 L60.5161419,6.30316249 L62.1638587,6.30316249 L62.1638587,13.3260632 C62.1638587,14.2275536 62.4165086,14.954562 62.9218084,15.5070883 C63.4271082,16.0596147 64.2070274,16.3358779 65.2615661,16.3358779 Z M73.1346563,16.3794984 C74.4381832,16.3794984 75.5293379,16.08506 76.4081202,15.4961832 C77.2869024,14.9073064 77.8288182,14.0385315 78.0338674,12.8898582 L78.0338674,12.8898582 L76.2103942,12.8898582 C75.9760522,14.2130135 74.9581294,14.8745911 73.1566258,14.8745911 C71.9702698,14.8745911 71.069518,14.5292621 70.4543704,13.8386041 C69.8392228,13.1479462 69.5096794,12.1483097 69.4657403,10.8396947 L69.4657403,10.8396947 L78.1217456,10.8396947 L78.1217456,10.2508179 C78.1217456,9.23300618 77.9789435,8.36423119 77.6933392,7.64449291 C77.407735,6.92475463 77.0232678,6.33951291 76.5399375,5.88876772 C76.0566073,5.43802253 75.5037067,5.10723374 74.881236,4.89640131 C74.2587653,4.68556888 73.6179865,4.58015267 72.9588998,4.58015267 C72.1679958,4.58015267 71.4430004,4.7219193 70.7839137,5.00545256 C70.124827,5.28898582 69.5572802,5.68884042 69.0812731,6.20501636 C68.605266,6.7211923 68.2354452,7.3391494 67.9718105,8.05888768 C67.7081758,8.77862595 67.5763585,9.56743003 67.5763585,10.4252999 L67.5763585,10.4252999 L67.5763585,10.5997819 C67.5763585,11.4721919 67.7118374,12.264631 67.9827953,12.9770992 C68.2537531,13.6895675 68.6382203,14.2966194 69.136197,14.7982552 C69.6341736,15.2998909 70.2200284,15.6888404 70.8937615,15.9651036 C71.5674946,16.2413668 72.3144595,16.3794984 73.1346563,16.3794984 Z M76.2543333,9.37840785 L69.531649,9.37840785 C69.692759,8.36059614 70.0699031,7.55725191 70.6630812,6.96837514 C71.2562592,6.37949836 72.021532,6.08505998 72.9588998,6.08505998 C73.9109139,6.08505998 74.6761868,6.33951291 75.2547185,6.84841876 C75.8332501,7.35732461 76.1664551,8.20065431 76.2543333,9.37840785 L76.2543333,9.37840785 Z M81.6009244,16.1832061 L81.6009244,9.92366412 C81.6009244,9.2257361 81.6888027,8.64776445 81.8645591,8.18974918 C82.0403156,7.73173391 82.2929655,7.3645947 82.6225088,7.08833152 C82.9520522,6.81206834 83.3511658,6.61577608 83.8198496,6.49945474 C84.2885335,6.38313341 84.8084797,6.31043257 85.3796881,6.28135224 L85.3796881,6.28135224 L85.3796881,4.58015267 C84.8670652,4.59469284 84.4130277,4.66012359 84.0175756,4.77644493 C83.6221236,4.89276626 83.2779339,5.04907306 82.9850065,5.24536532 C82.6920791,5.44165758 82.432106,5.67430026 82.2050872,5.94329335 C81.9780685,6.21228644 81.7766809,6.50672482 81.6009244,6.82660851 L81.6009244,6.82660851 L81.6009244,4.77644493 L79.7774512,4.77644493 L79.7774512,16.1832061 L81.6009244,16.1832061 Z M89.6717406,16.3794984 C90.5212301,16.3794984 91.2242559,16.2413668 91.780818,15.9651036 C92.3373801,15.6888404 92.8280336,15.2817158 93.2527783,14.7437296 L93.2527783,14.7437296 L93.2527783,16.1832061 L95.0762515,16.1832061 L95.0762515,8.65866957 C95.0762515,7.85896037 94.9590805,7.19738277 94.7247386,6.67393675 C94.4903966,6.15049073 94.1828228,5.73246092 93.8020172,5.41984733 C93.4212116,5.10723374 92.9744972,4.88913123 92.4618743,4.7655398 C91.9492513,4.64194838 91.421982,4.58015267 90.8800662,4.58015267 C90.3235041,4.58015267 89.78525,4.64194838 89.2653038,4.7655398 C88.7453576,4.88913123 88.2766738,5.09269357 87.8592522,5.37622683 C87.4418306,5.65976009 87.0976409,6.02689931 86.826683,6.47764449 C86.5557252,6.92838968 86.3909535,7.48091603 86.332368,8.13522356 L86.332368,8.13522356 L88.1558412,8.13522356 C88.3315976,6.76844783 89.2103799,6.08505998 90.792188,6.08505998 C91.6709702,6.08505998 92.3007642,6.28498728 92.6815698,6.68484188 C93.0623754,7.08469647 93.2527783,7.74263904 93.2527783,8.65866957 L93.2527783,8.65866957 L93.2527783,9.48745911 L91.6050616,9.48745911 C90.872743,9.48745911 90.1587325,9.54925481 89.4630298,9.67284624 C88.7673271,9.79643766 88.1521796,9.99636493 87.6175871,10.2726281 C87.0829946,10.5488913 86.6545882,10.9123955 86.332368,11.3631407 C86.0101478,11.8138859 85.8490378,12.3664122 85.8490378,13.0207197 C85.8490378,13.6023265 85.9479008,14.1039622 86.1456268,14.525627 C86.3433528,14.9472919 86.6143106,15.2962559 86.9585004,15.5725191 C87.3026901,15.8487823 87.7091269,16.0523446 88.1778107,16.1832061 C88.6464946,16.3140676 89.1444712,16.3794984 89.6717406,16.3794984 Z M89.847497,14.9400218 C89.0419466,14.9400218 88.4780614,14.7691749 88.1558412,14.4274809 C87.833621,14.085787 87.6725109,13.6168666 87.6725109,13.0207197 C87.6725109,12.5990549 87.771374,12.2464558 87.9691,11.9629226 C88.166826,11.6793893 88.4451071,11.4503817 88.8039431,11.2758997 C89.1627792,11.1014177 89.587524,10.9741912 90.0781774,10.8942203 C90.5688308,10.8142493 91.0997618,10.7742639 91.6709702,10.7742639 L91.6709702,10.7742639 L93.2527783,10.7742639 L93.2527783,12.1919302 C93.2527783,12.6281352 93.1649001,13.0170847 92.9891436,13.3587786 C92.8133872,13.7004726 92.5753837,13.9876408 92.275133,14.2202835 C91.9748824,14.4529262 91.6160463,14.6310432 91.1986248,14.7546347 C90.7812032,14.8782261 90.3308273,14.9400218 89.847497,14.9400218 Z M102.290255,16.3794984 C102.978634,16.3794984 103.615751,16.2704471 104.201606,16.0523446 C104.787462,15.8342421 105.300084,15.5361686 105.739475,15.1581243 C106.178866,14.78008 106.534041,14.3256997 106.804999,13.7949836 C107.075956,13.2642676 107.240728,12.693566 107.299314,12.082879 L107.299314,12.082879 L105.607658,12.082879 C105.563719,12.5481643 105.442886,12.955289 105.24516,13.304253 C105.047434,13.653217 104.798446,13.9440203 104.498195,14.176663 C104.197944,14.4093057 103.861078,14.5837877 103.487596,14.7001091 C103.114113,14.8164304 102.722323,14.8745911 102.312224,14.8745911 C101.1991,14.8745911 100.294687,14.5147219 99.5989843,13.7949836 C98.9032816,13.0752454 98.5554303,12.0101782 98.5554303,10.5997819 L98.5554303,10.5997819 L98.5554303,10.4252999 C98.5554303,9.7564522 98.6506317,9.15303526 98.8410346,8.61504907 C99.0314374,8.07706288 99.2914105,7.62268266 99.6209538,7.2519084 C99.9504972,6.88113413 100.338626,6.59396583 100.78534,6.39040349 C101.232054,6.18684115 101.719046,6.08505998 102.246316,6.08505998 C103.03722,6.08505998 103.729261,6.27408216 104.322439,6.6521265 C104.915617,7.03017084 105.285437,7.66993821 105.431902,8.57142857 L105.431902,8.57142857 L107.233405,8.57142857 C107.145527,7.84442021 106.947801,7.2264631 106.640227,6.71755725 C106.332653,6.2086514 105.955509,5.79789167 105.508795,5.48527808 C105.062081,5.17266449 104.556781,4.94365686 103.992896,4.79825518 C103.42901,4.6528535 102.846817,4.58015267 102.246316,4.58015267 C101.470058,4.58015267 100.745063,4.7219193 100.07133,5.00545256 C99.3975966,5.28898582 98.8080802,5.68520538 98.3027804,6.19411123 C97.7974806,6.70301708 97.398367,7.31733915 97.1054396,8.03707743 C96.8125122,8.7568157 96.6660485,9.55288986 96.6660485,10.4252999 L96.6660485,10.4252999 L96.6660485,10.5997819 C96.6660485,11.4867321 96.8088506,12.2864413 97.0944548,12.9989095 C97.3800591,13.7113777 97.7755111,14.3184297 98.2808109,14.8200654 C98.7861107,15.3217012 99.3792887,15.7070157 100.060345,15.9760087 C100.741401,16.2450018 101.484704,16.3794984 102.290255,16.3794984 Z M112.40424,16.3358779 C112.785045,16.3358779 113.092619,16.3140676 113.326961,16.2704471 C113.561303,16.2268266 113.773675,16.1686659 113.964078,16.0959651 L113.964078,16.0959651 L113.964078,14.5692475 C113.759029,14.6419483 113.546657,14.7001091 113.326961,14.7437296 C113.107266,14.7873501 112.850954,14.8091603 112.558027,14.8091603 C111.606013,14.8091603 111.130006,14.256634 111.130006,13.1515812 L111.130006,13.1515812 L111.130006,6.30316249 L113.810291,6.30316249 L113.810291,4.77644493 L111.130006,4.77644493 L111.130006,2.18102508 L109.306532,2.18102508 L109.306532,4.77644493 L107.658816,4.77644493 L107.658816,6.30316249 L109.306532,6.30316249 L109.306532,13.3260632 C109.306532,14.2275536 109.559182,14.954562 110.064482,15.5070883 C110.569782,16.0596147 111.349701,16.3358779 112.40424,16.3358779 Z M116.498566,2.39912759 C116.835432,2.39912759 117.121037,2.28280626 117.355379,2.05016358 C117.589721,1.8175209 117.706892,1.53398764 117.706892,1.19956379 C117.706892,0.865139949 117.589721,0.581606689 117.355379,0.348964013 C117.121037,0.116321337 116.835432,0 116.498566,0 C116.1617,0 115.876096,0.116321337 115.641754,0.348964013 C115.407411,0.581606689 115.290241,0.865139949 115.290241,1.19956379 C115.290241,1.53398764 115.407411,1.8175209 115.641754,2.05016358 C115.876096,2.28280626 116.1617,2.39912759 116.498566,2.39912759 Z M117.443257,16.1832061 L117.443257,4.77644493 L115.619784,4.77644493 L115.619784,16.1832061 L117.443257,16.1832061 Z M125.250439,16.1832061 L129.380715,4.77644493 L127.491333,4.77644493 L124.129991,14.351145 L120.72471,4.77644493 L118.74745,4.77644493 L122.921666,16.1832061 L125.250439,16.1832061 Z M135.012911,16.3794984 C136.316437,16.3794984 137.407592,16.08506 138.286375,15.4961832 C139.165157,14.9073064 139.707073,14.0385315 139.912122,12.8898582 L139.912122,12.8898582 L138.088649,12.8898582 C137.854306,14.2130135 136.836384,14.8745911 135.03488,14.8745911 C133.848524,14.8745911 132.947772,14.5292621 132.332625,13.8386041 C131.717477,13.1479462 131.387934,12.1483097 131.343995,10.8396947 L131.343995,10.8396947 L140,10.8396947 L140,10.2508179 C140,9.23300618 139.857198,8.36423119 139.571594,7.64449291 C139.285989,6.92475463 138.901522,6.33951291 138.418192,5.88876772 C137.934862,5.43802253 137.381961,5.10723374 136.75949,4.89640131 C136.13702,4.68556888 135.496241,4.58015267 134.837154,4.58015267 C134.04625,4.58015267 133.321255,4.7219193 132.662168,5.00545256 C132.003081,5.28898582 131.435535,5.68884042 130.959528,6.20501636 C130.48352,6.7211923 130.1137,7.3391494 129.850065,8.05888768 C129.58643,8.77862595 129.454613,9.56743003 129.454613,10.4252999 L129.454613,10.4252999 L129.454613,10.5997819 C129.454613,11.4721919 129.590092,12.264631 129.86105,12.9770992 C130.132007,13.6895675 130.516474,14.2966194 131.014451,14.7982552 C131.512428,15.2998909 132.098283,15.6888404 132.772016,15.9651036 C133.445749,16.2413668 134.192714,16.3794984 135.012911,16.3794984 Z M138.132588,9.37840785 L131.409903,9.37840785 C131.571013,8.36059614 131.948158,7.55725191 132.541336,6.96837514 C133.134514,6.37949836 133.899786,6.08505998 134.837154,6.08505998 C135.789168,6.08505998 136.554442,6.33951291 137.132973,6.84841876 C137.711504,7.35732461 138.044709,8.20065431 138.132588,9.37840785 L138.132588,9.37840785 Z" id="Interactive" fill="#15181B"></path>
                </g>
                <g id="Group">
                    <path d="M24.3,12.4042204 L24.3,13.8085662 C24.479484,14.042947 24.6213879,14.3091213 24.8286655,14.5301255 C29.7395196,19.7696695 29.7395196,28.7455411 24.3,33.8455035 L24.3,35.7 L32,35.7 L32,7.9 C32,7.9 29.4739146,13.0148898 24.3,12.4042204" id="Fill-1" fill="#15181B" fill-rule="nonzero"></path>
                    <g id="Fill-3-Clipped" transform="translate(0.000000, 11.400000)">
                        <mask id="mask-2" fill="white">
                            <use xlink:href="#path-1"></use>
                        </mask>
                        <g id="path-1"></g>
                        <path d="M12.6203136,5.92850165 C12.3743807,5.95694877 11.9251847,5.98518992 11.4851045,6.06372354 C7.01971585,6.86124594 4.79196734,12.0581982 7.35544915,15.7887384 C8.92647152,18.0751111 11.2013507,18.8672174 13.9070003,18.5385755 C17.4018463,18.113991 19.9121849,14.7190564 19.2973526,11.2645445 C18.7312027,8.08373964 16.1106986,5.92425867 12.6203136,5.92850165 M12.5842383,0 C17.3060333,0.127858915 21.039054,1.73064101 23.6048632,5.49193692 C27.9501947,11.8618642 25.5123947,21.6592228 16.5147035,24.0519834 C11.8512885,25.2922729 7.49528954,24.4672831 3.83092835,21.1675172 C1.0641834,18.676106 -0.129599648,15.4678338 0.0110165519,11.7761736 C0.126612766,8.74392493 1.23098331,6.09970199 3.34216583,3.90076078 C5.24736988,1.91652969 7.59090855,0.731561899 10.2903517,0.254944099 C11.1276484,0.106968199 11.9835647,0.0644130387 12.5842383,0" id="Fill-3" fill="#15181B" fill-rule="nonzero" mask="url(#mask-2)"></path>
                    </g>
                    <path d="M30.1,5 C30.1,7.7614227 27.8614661,10 25.100097,10 C22.3385339,10 20.1,7.7614227 20.1,5 C20.1,2.2385773 22.3385339,0 25.100097,0 C27.8614661,0 30.1,2.2385773 30.1,5" id="Fill-6" fill="#A100FF" fill-rule="nonzero"></path>
                </g>
            </g>
        </g>
    </g>
</svg>