<?xml version="1.0" encoding="UTF-8"?>
<svg width="32px" height="32px" viewBox="0 0 32 32" version="1.1" xmlns="http://www.w3.org/2000/svg" xmlns:xlink="http://www.w3.org/1999/xlink">
    <title>01 Elements/00 Branding/01 Product/Icons/01 Foundation/\ SynOps</title>
    <defs>
        <linearGradient x1="0%" y1="0%" x2="99.4536529%" y2="99.4536529%" id="linearGradient-1">
            <stop stop-color="#A100FF" offset="0%"></stop>
            <stop stop-color="#008EFF" offset="100%"></stop>
        </linearGradient>
    </defs>
    <g id="Symbols" stroke="none" stroke-width="1" fill="none" fill-rule="evenodd">
        <g id="01-Elements/00-Branding/01-Product/Icons/01-Foundation/\-SynOps" fill="url(#linearGradient-1)">
            <path d="M20.8100853,17.0659306 L21.7050506,17.9581981 C23.3336658,19.4894007 24.2666667,21.6418 24.2666667,23.8706128 C24.2666667,28.3530181 20.6054993,32 16.1052073,32 C12.0113924,32 8.6140026,28.9813572 8.03322528,25.0620205 L8,24.8106472 L8.1366473,24.8149196 C9.88462982,24.8149196 11.5904539,24.2923527 13.0356064,23.3471915 C13.0064386,23.5184509 12.9881781,23.6927619 12.9881781,23.8706128 C12.9881781,25.582596 14.38627,26.9752531 16.1052073,26.9752531 C17.824022,26.9752531 19.2221139,25.582596 19.2221139,23.8706128 C19.2221139,23.0737015 18.9256371,22.3299212 18.3833749,21.7530392 L18.2294294,21.5999312 L17.2430567,20.619647 C19.0020544,20.1974098 20.3865838,18.8180955 20.8100853,17.0659306 Z M7.18915666,8 C7.18842428,8.04546706 7.18488445,8.09093411 7.18488445,8.13664627 C7.18488445,9.88461562 7.70743704,11.5904268 8.65257244,13.0355684 C8.48143983,13.0064009 8.30713357,12.988018 8.12916541,12.988018 C6.41722894,12.988018 5.02460982,14.3862219 5.02460982,16.1050237 C5.02460982,17.8238255 6.41722894,19.2221519 8.12916541,19.2221519 C8.92605506,19.2221519 9.66991756,18.9255743 10.246707,18.3832047 L10.3997852,18.2292298 L11.3800771,17.2428855 C11.8022575,19.0016706 13.1812807,20.3860739 14.9331275,20.8097362 L14.0414189,21.7048248 C12.510258,23.3335503 10.3579175,24.2666667 8.12916541,24.2666667 C3.64688241,24.2666667 0,20.6054044 0,16.1050237 C0,11.9242604 3.14825422,8.469622 7.18915666,8 Z M23.8711998,7.73333333 C28.3532267,7.73333333 32,11.3946232 32,15.8949153 C32,20.0755875 28.8522061,23.5300068 24.8120348,24 L24.8148422,23.8635978 C24.8148422,22.1154927 24.2924273,20.4094236 23.3476864,18.9645162 C23.5186918,18.9935614 23.6931149,19.0119445 23.8711998,19.0119445 C25.5830851,19.0119445 26.9760287,17.61373 26.9760287,15.8949153 C26.9760287,14.175978 25.5830851,12.7778861 23.8711998,12.7778861 C23.0742221,12.7778861 22.3302699,13.073951 21.7534799,13.6166165 L21.6004038,13.7706931 L20.6201606,14.7566665 C20.1978255,12.9978772 18.8186674,11.613542 17.0667392,11.1900761 L17.958879,10.295072 C19.48975,8.66633416 21.6416599,7.73333333 23.8711998,7.73333333 Z M16,12 C18.209139,12 20,13.790861 20,16 C20,18.209139 18.209139,20 16,20 C13.790861,20 12,18.209139 12,16 C12,13.790861 13.790861,12 16,12 Z M15.8949153,2.30926389e-14 C20.0754649,2.30926389e-14 23.5301294,3.14777553 24,7.188202 C23.9545326,7.18734756 23.9091878,7.18515041 23.8635978,7.18515041 C22.1153702,7.18515041 20.409301,7.70770459 18.9645162,8.65247667 C18.9935614,8.48134354 19.0119445,8.30703675 19.0119445,8.12894599 C19.0119445,6.41688226 17.61373,5.02413684 15.8949153,5.02413684 C14.1761005,5.02413684 12.7778861,6.41688226 12.7778861,8.12894599 C12.7778861,8.92606184 13.073951,9.66984268 13.6166165,10.2467123 L13.7706931,10.3998168 L14.7571394,11.3800771 C12.9980011,11.8023379 11.613391,13.1818054 11.1900093,14.9341274 L10.295072,14.0413395 C8.66633416,12.5105402 7.73333333,10.3584372 7.73333333,8.12894599 C7.73333333,3.6468935 11.3945007,2.30926389e-14 15.8949153,2.30926389e-14 Z" id="Combined-Shape"></path>
        </g>
    </g>
</svg>